<?xml version="1.0" encoding="UTF-8" standalone="no" ?>
<!DOCTYPE svg PUBLIC "-//W3C//DTD SVG 1.1//EN" "http://www.w3.org/Graphics/SVG/1.1/DTD/svg11.dtd">
<svg xmlns="http://www.w3.org/2000/svg" xmlns:xlink="http://www.w3.org/1999/xlink" version="1.1" width="1080" height="1080" viewBox="0 0 1080 1080" xml:space="preserve">
<desc>Created with Fabric.js 5.2.4</desc>
<defs>
</defs>
<g transform="matrix(1 0 0 1 540 540)" id="5ba2dd4b-4cb3-4e3a-a668-b5bb0a79991c"  >
<rect style="stroke: none; stroke-width: 1; stroke-dasharray: none; stroke-linecap: butt; stroke-dashoffset: 0; stroke-linejoin: miter; stroke-miterlimit: 4; fill: rgb(255,255,255); fill-rule: nonzero; opacity: 1;" vector-effect="non-scaling-stroke"  x="-540" y="-540" rx="0" ry="0" width="1080" height="1080" />
</g>
<g transform="matrix(1 0 0 1 540 540)" id="0f899426-b582-4f28-abcb-04a3de328bd4"  >
</g>
<g transform="matrix(1 0 0 1 540 540)"  >
<g style="" vector-effect="non-scaling-stroke"   >
		<g transform="matrix(1 0 0 1 0 0)"  >
<rect style="stroke: none; stroke-width: 1; stroke-dasharray: none; stroke-linecap: butt; stroke-dashoffset: 0; stroke-linejoin: miter; stroke-miterlimit: 4; fill: rgb(255,255,255); fill-rule: nonzero; opacity: 1; visibility: hidden;" vector-effect="non-scaling-stroke"  x="-540" y="-540" rx="0" ry="0" width="1080" height="1080" />
</g>
		<g transform="matrix(3.31 0 0 3.31 0 -0.01)"  >
<path style="stroke: rgb(0,0,0); stroke-width: 0; stroke-dasharray: none; stroke-linecap: butt; stroke-dashoffset: 0; stroke-linejoin: miter; stroke-miterlimit: 4; fill: rgb(0,0,0); fill-rule: nonzero; opacity: 1;" vector-effect="non-scaling-stroke"  transform=" translate(-960.5, -530.69)" d="M 932 375.28 C 934.33 375.14 936.45 374.67 938.84 375 C 942.63 375.03 945.63 376.31 949 378.06 C 972.14 390.06 963.2 428.61 935 426.48 C 912.8 424.81 902.66 398.2 918.32 382.3 C 922.22 378.34 926.73 376.71 932 375.28 Z M 915 464 C 911.07 464 903.7 464.91 901.3 461.57 C 898.25 457.94 897.95 444.81 901.3 441.6 C 903.31 439.97 905.73 440.05 908 440 C 908 440 963 440 963 440 C 965.74 440.01 969.38 439.69 971.57 441.6 C 974.86 444.45 975 458.35 972.26 461.57 C 969.47 464.85 962.04 464 958 464 C 958 467.89 957.76 474.43 958.52 478 C 960.43 487.04 967.17 500.11 972.06 508 C 972.06 508 980 521 980 521 C 965.55 525.73 958.51 528.54 947.17 539.42 C 947.17 539.42 936 552 936 552 C 921.43 533.2 915.56 528.38 893 521 C 896.23 513.39 910.35 494.8 914.39 479 C 915.3 475.44 915 467.98 915 464 Z M 974.94 587 C 974.94 587 974.94 601 974.94 601 C 975.01 603.54 975.62 609 974.94 611 C 973.7 613.74 968.51 618.41 966.3 621 C 962.35 625.61 957.75 632.37 955.45 638 C 953.48 642.82 952.11 647.86 951.27 653 C 950.94 655.05 950.87 658.46 948.58 659.37 C 944.16 661.13 939.81 652.01 938.26 649 C 930.91 634.79 928.98 625.87 929 610 C 929.04 584.2 944.28 565.11 965 551.36 C 979.76 541.56 992.82 537.68 1009 531.58 C 1028.37 524.27 1055.14 513.65 1073 503.83 C 1082.8 498.43 1095.8 490.52 1101.87 481 C 1104.11 477.49 1107.37 465.63 1111.9 465.63 C 1114.91 465.63 1115.57 469.74 1115.83 472 C 1115.83 472 1117 493 1117 493 C 1116.65 532.19 1104.72 576.06 1087.25 611 C 1077.59 630.31 1065.27 649.76 1049 664.15 C 1029.64 681.28 1008.09 691.17 982 684.27 C 977.44 683.06 967.69 679.57 964.43 676.37 C 962 673.97 962.1 671.15 961.72 668 C 960.76 659.97 962.64 651.56 965.35 644 C 970.19 630.45 983.23 617.21 995 609.35 C 998.99 606.69 1004.33 602.93 1009 602.05 C 1009 602.05 1052 600 1052 600 C 1052 600 1033 595.62 1033 595.62 C 1030.97 595.08 1027.46 594.29 1027.05 591.78 C 1026.51 588.45 1031.75 585.12 1034 583.34 C 1040.88 577.91 1047.87 572.16 1053 565 C 1038.12 578.67 1021.88 588.44 1003 595.58 C 999.4 596.93 988.8 602.2 986.04 601.35 C 981.69 600 977.25 590.91 974.94 587 Z M 804 505 C 810.56 506.09 810.6 510.31 815.18 514.53 C 819.61 518.62 825.4 520.72 831 522.66 C 839.82 525.71 859.62 530.34 869 531.92 C 886.49 534.87 903.14 536.92 916.91 549.44 C 927.13 558.73 930.66 573.67 928.56 587 C 927.72 592.35 926.64 599.08 921 601 C 918.56 593.96 916.23 588.58 910.83 583.17 C 910.83 583.17 901.98 575.49 901.98 575.49 C 900.36 573.03 900.75 567.89 898 562 C 898 562 894 572 894 572 C 874.58 566.75 869.74 566.9 851 557 C 857.25 562.29 861.53 564.78 869 568 C 867.16 573.42 860.78 574.52 856 577 C 865.62 576.97 877.02 572.82 884 574.61 C 894.98 577.42 907.58 586.6 912.33 597 C 916.42 605.94 917.07 612.13 908 617.53 C 889.38 628.61 869.13 619.43 854 607.2 C 846.15 600.85 840.61 594.04 834.63 586 C 818.92 564.89 804.24 531.65 804 505 Z" stroke-linecap="round" />
</g>
</g>
</g>
</svg>